<?xml version="1.0" encoding="utf-8"?>
<!-- Generator: Adobe Illustrator 28.0.0, SVG Export Plug-In . SVG Version: 6.00 Build 0)  -->
<svg version="1.1" id="Layer_1" xmlns="http://www.w3.org/2000/svg" xmlns:xlink="http://www.w3.org/1999/xlink" x="0px" y="0px"
	 viewBox="0 0 420 420" style="enable-background:new 0 0 420 420;" xml:space="preserve">
<style type="text/css">
	.st0{fill:#D41E80;}
	.st1{fill:#0C0C0C;}
</style>
<g>
	<path class="st0" d="M319.39,143.17c-2.92,0-5.83,0.18-8.72,0.53c-7.86-25.58-31.46-43.07-58.22-43.12
		c-6.66-0.01-13.28,1.1-19.57,3.27c-15.58-33.7-52.52-52.01-88.77-44.02c-36.26,7.99-62.07,40.14-62.04,77.26
		c0,6.42,0.8,12.81,2.37,19.02c-34.54,5.27-59.23,36.23-56.66,71.09c2.56,34.85,31.51,61.87,66.46,62.02h225.16
		c40.33,0,73.02-32.7,73.02-73.03S359.72,143.17,319.39,143.17 M319.39,277.04H94.23c-30,0.13-54.52-23.92-54.96-53.92
		c-0.44-30,23.34-54.76,53.33-55.53c1.95-0.05,3.75-1.04,4.85-2.64c1.1-1.61,1.37-3.64,0.71-5.48
		c-12.08-34.57,5.89-72.42,40.31-84.92c34.42-12.5,72.49,5.01,85.4,39.28c0.59,1.59,1.81,2.86,3.38,3.51
		c1.57,0.65,3.33,0.61,4.87-0.1c6.37-2.96,13.31-4.5,20.33-4.51c23.15,0.04,43.09,16.35,47.72,39.04c0.66,3.3,3.87,5.43,7.17,4.76
		c3.97-0.79,8-1.2,12.06-1.2c33.61,0,60.85,27.25,60.85,60.85C380.24,249.8,353,277.04,319.39,277.04 M267.18,213.1l1.6,12.86
		l16.77-0.12v-10.9h15.97v21.93H249.5l-1.48-11.02l4.11-0.12l-4.11-57.21l45.28,0.25c5.93,0,8.44,1.84,8.44,4.65
		c0,23.4-15.17,34.18-26.92,36.01l-2.88-2.42l-2.2-8.73c7.28,0,17.75-10.53,17.75-21.31h-28.17l2.62,31.48L267.18,213.1z
		 M198.29,225.84h43.68l1.55,11.02h-3.49l-0.23,19.23h-15.85v-19.23h-41.63v-67.86h56.91c0,19.35-3.17,40.18-23.84,40.18l-8.18,0.25
		l-2.65-2.39v-8.88c22.59,0,19.84-11.76,19.84-18.25l-30.34,0.37v28.91l4.22,4.16V225.84z M135.56,168.52l7.76,6.74v4.29h4.56
		l5.7,5.14c0.8,0.49,1.71,1.22,1.71,3.8v6.25l-1.82,3.67v10.78l5.82,4.53v42.38h-15.97v-76.56h-33.76v-11.02H135.56z M158.6,198.28
		h16.88v11.02h-14.26l-2.62-2.45V198.28z M266.83,236.09c0.01,4.29,2.85,8.32,6.66,9.59c0.37,0.12,0.53,0.05,0.63-0.36
		c1.02-4.02,4.53-7.13,8.91-7.06c2.2,0.04,4.39-0.01,6.59,0c0.83,0,1.54,0.37,1.87,1.22c0.19,0.48,0.19,1.05,0.22,1.58
		c0.03,0.69,0.01,0.69,0.64,0.69c2.34,0,4.69-0.01,7.03,0.01c1.38,0.01,2.15,1.49,1.44,2.75c-0.35,0.61-0.9,0.84-1.55,0.84
		c-2.26-0.01-4.51,0-6.77,0c-0.79,0-0.79,0-0.79,0.82c0,1.43,0.02,2.87-0.01,4.3c-0.01,0.47,0.14,0.65,0.56,0.6
		c0.1-0.01,0.21,0,0.31,0c2.24,0,4.48-0.01,6.72,0c0.97,0,1.68,0.65,1.78,1.58c0.12,1.11-0.64,2.01-1.72,2.02
		c-2.37,0.01-4.75,0.01-7.12-0.01c-0.42,0-0.58,0.14-0.52,0.58c0.01,0.09,0,0.19,0,0.29c-0.04,1.22-0.85,2.11-1.98,2.12
		c-2.46,0.01-4.93,0.01-7.39,0c-1.04,0-2.03-0.27-2.98-0.71c-2.9-1.35-4.69-3.7-5.39-7c-0.07-0.31-0.18-0.45-0.47-0.52
		c-0.5-0.12-1.01-0.27-1.49-0.46c-5.21-2.09-8.54-7.25-8.54-13.23 M288.37,242.46c0-0.45-0.13-0.61-0.56-0.61
		c-1.68,0.02-3.35-0.02-5.03,0.02c-4.39,0.08-7.09,5.03-4.93,9.09c1.08,2.02,2.77,3.05,4.95,3.1c1.68,0.04,3.35,0,5.03,0.02
		c0.41,0.01,0.54-0.14,0.54-0.57c-0.02-1.85-0.01-3.7-0.01-5.55C288.36,246.13,288.35,244.29,288.37,242.46"/>
	<g>
		<path class="st1" d="M81.66,328.57h-8.35v-6.76h15.6v22.57c-3.27,1.98-7.57,2.97-12.91,2.97c-7.32,0-12.61-1.81-15.87-5.42
			c-3.27-3.61-4.9-9.47-4.9-17.57c0-7.22,1.69-12.84,5.07-16.84c3.38-4,8.5-6.01,15.36-6.01c4.83,0,9.2,1.01,13.11,3.04l-1.17,7.32
			c-1.38-0.87-3.18-1.6-5.38-2.17c-2.21-0.58-4.35-0.86-6.42-0.86c-4.51,0-7.72,1.24-9.63,3.73c-1.91,2.48-2.86,6.51-2.86,12.08
			c0,4.79,0.78,8.47,2.35,11.04c1.89,2.9,5.31,4.35,10.28,4.35c1.52,0,3.43-0.25,5.73-0.76V328.57z"/>
		<path class="st1" d="M111.82,347.34c-10.58,0-15.87-5.94-15.87-17.81c0-5.61,1.36-9.97,4.07-13.08c2.71-3.11,6.65-4.66,11.8-4.66
			c10.54,0,15.81,5.91,15.81,17.74c0,5.61-1.35,9.99-4.04,13.11C120.89,345.78,116.97,347.34,111.82,347.34z M111.82,318.97
			c-3.04,0-5.17,0.84-6.38,2.52c-1.22,1.68-1.83,4.36-1.83,8.04c0,3.68,0.61,6.37,1.83,8.08c1.22,1.7,3.35,2.55,6.38,2.55
			c3.08,0,5.22-0.84,6.42-2.52c1.2-1.68,1.79-4.38,1.79-8.11c0-3.68-0.6-6.36-1.79-8.04C117.04,319.81,114.9,318.97,111.82,318.97z"
			/>
		<path class="st1" d="M149.43,347.34c-10.58,0-15.87-5.94-15.87-17.81c0-5.61,1.36-9.97,4.07-13.08c2.71-3.11,6.65-4.66,11.8-4.66
			c10.54,0,15.81,5.91,15.81,17.74c0,5.61-1.35,9.99-4.04,13.11C158.51,345.78,154.59,347.34,149.43,347.34z M149.43,318.97
			c-3.04,0-5.17,0.84-6.38,2.52c-1.22,1.68-1.83,4.36-1.83,8.04c0,3.68,0.61,6.37,1.83,8.08c1.22,1.7,3.35,2.55,6.38,2.55
			c3.08,0,5.22-0.84,6.42-2.52c1.2-1.68,1.79-4.38,1.79-8.11c0-3.68-0.6-6.36-1.79-8.04C154.66,319.81,152.52,318.97,149.43,318.97z
			"/>
		<path class="st1" d="M193.26,298.68h7.59v46.52c-3.31,1.43-7.57,2.14-12.77,2.14c-5.61,0-9.84-1.55-12.66-4.66
			c-2.83-3.11-4.24-7.6-4.24-13.49c0-5.29,1.39-9.51,4.18-12.66c2.78-3.15,6.66-4.73,11.63-4.73c2.48,0,4.58,0.32,6.28,0.97V298.68z
			 M178.84,329.53c0,3.77,0.68,6.49,2.04,8.14c1.36,1.66,3.67,2.48,6.94,2.48c2.12,0,3.93-0.23,5.45-0.69v-19.46
			c-1.38-0.69-3.29-1.04-5.73-1.04c-3.22,0-5.48,0.83-6.76,2.48C179.48,323.12,178.84,325.81,178.84,329.53z"/>
		<path class="st1" d="M235.57,324.15v21.05c-3.87,1.43-8.4,2.14-13.6,2.14c-9.39,0-14.08-3.59-14.08-10.77
			c0-7.13,4.65-10.7,13.94-10.7h6.21v-2.55c0-3.08-2.39-4.62-7.18-4.62c-3.54,0-6.69,0.53-9.46,1.59l-1.1-6.9
			c3.82-1.06,7.45-1.59,10.91-1.59C230.78,311.8,235.57,315.91,235.57,324.15z M228.05,340.16v-8.49h-6.28
			c-2.21,0-3.81,0.36-4.8,1.07c-0.99,0.71-1.48,1.9-1.48,3.55c0,1.75,0.48,2.95,1.45,3.59c0.97,0.64,2.55,0.97,4.76,0.97
			C224.27,340.85,226.39,340.62,228.05,340.16z"/>
		<path class="st1" d="M239.23,312.49h8.01l10.28,24.29l9.04-24.29h7.94l-12.91,34.1c-1.93,5.06-4.33,8.91-7.18,11.56
			c-2.85,2.65-6.42,3.94-10.7,3.9l-1.66-7.11c1.98,0.14,4.19-0.53,6.63-2c2.39-1.43,4.12-3.54,5.18-6.35L239.23,312.49z"/>
		<path class="st1" d="M316.12,324.5c0,6.95-1.27,12.42-3.8,16.43c-2.76,4.33-7.68,6.49-14.77,6.49c-7.09,0-12.01-2.16-14.77-6.49
			c-2.48-4-3.73-9.48-3.73-16.43c0-7.04,1.24-12.49,3.73-16.36c2.71-4.37,7.64-6.56,14.77-6.56c7.18,0,12.12,2.19,14.84,6.56
			C314.87,312,316.12,317.46,316.12,324.5z M308.18,324.5c0-5.34-0.71-9.27-2.14-11.8c-1.43-2.53-4.26-3.8-8.49-3.8
			c-4.23,0-7.06,1.27-8.49,3.8c-1.43,2.53-2.14,6.47-2.14,11.8c0,5.34,0.71,9.27,2.14,11.8c1.43,2.53,4.26,3.8,8.49,3.8
			c4.37,0,7.27-1.4,8.7-4.21C307.53,333.26,308.18,329.47,308.18,324.5z"/>
		<path class="st1" d="M331.58,346.58h-7.59V314c3.87-1.47,8.93-2.21,15.18-2.21c9.62,0,14.42,4.49,14.42,13.46v21.33h-7.52v-21.12
			c0-2.3-0.58-3.96-1.73-4.97c-1.15-1.01-2.92-1.52-5.31-1.52c-2.9,0-5.38,0.28-7.45,0.83V346.58z"/>
	</g>
</g>
</svg>
